<svg preserveAspectRatio="xMidYMid meet" data-bbox="34.3 20 131.4 160.2" xmlns="http://www.w3.org/2000/svg" width="200" height="200" viewBox="34.3 20 131.4 160.2" data-type="color" role="img" aria-labelledby="svgcid-9tagijetjcp7"><defs><style>#comp-kcam0oa2 svg [data-color="1"] {fill: #1E1E1E;}</style></defs><title id="svgcid-9tagijetjcp7">Homepage</title>
  <g>
      <path fill="#000000" d="M165.4 130.3c.1-.3.2-.5.2-.9 0-.2.1-.4.1-.5s-.1-.2-.1-.3c0-.3-.1-.6-.2-.9-.1-.3-.2-.5-.3-.8s-.3-.4-.4-.7c-.2-.3-.4-.4-.6-.6-.1-.1-.1-.2-.2-.3-.2-.1-.3-.1-.4-.2-.3-.2-.5-.3-.8-.4s-.5-.2-.8-.2c-.2 0-.4-.1-.5-.1h-33.6V88.1c0-.1 0-.2-.1-.3 3.6 2 7.6 3.3 12 3.3 13.1 0 23.9-10.7 23.9-23.9 0-7.6-3.6-14.7-9.7-19.1-1.3-15.6-14.6-28.1-30.6-28.1-12.4 0-23.1 7.5-27.9 18.2-5.3-4.2-11.9-6.6-18.8-6.6-16 0-29.2 12.4-30.6 28.2-6.1 4.5-9.7 11.5-9.7 19.1 0 13.1 10.7 23.9 23.9 23.9 4.3 0 8.3-1.2 12-3.3 0 .1-.1.2-.1.3v24.8H38.7c-2.4 0-4.4 2-4.4 4.4s2 4.4 4.4 4.4h55.4L83.2 148H38.7c-2.4 0-4.4 2-4.4 4.4s2 4.4 4.4 4.4h37.9l-10.9 14.6h-27c-2.4 0-4.4 2-4.4 4.4s2 4.4 4.4 4.4h29.1c1.3 0 2.7-.6 3.5-1.8l33.7-44.9h18.2L93.4 173c-1.4 2-1.1 4.7.9 6.1.8.6 1.7.9 2.7.9 1.3 0 2.7-.6 3.5-1.8l33.7-44.9h18.2L122.6 173c-1.4 2-1.1 4.7.9 6.1.8.6 1.7.9 2.7.9 1.3 0 2.7-.6 3.5-1.8l35-46.7.2-.4c.2-.2.4-.4.5-.8zm-42-101.5c12 0 21.9 9.8 21.9 21.8 0 1.5.8 2.9 2.1 3.7 4.6 2.8 7.5 7.6 7.5 13 0 8.3-6.8 15.2-15.2 15.2-5.1 0-9.8-2.6-12.6-6.8-.8-1.2-2.2-2-3.6-2s-2.8.7-3.6 2c-2.8 4.3-7.5 6.8-12.6 6.8-8.3 0-15.2-6.8-15.2-15.2 0-5.3 2.8-10.2 7.5-13 1.3-.8 2.1-2.2 2.1-3.7-.2-12 9.7-21.8 21.7-21.8zm-63 65.3c-8.3 0-15.2-6.8-15.2-15.2 0-5.3 2.8-10.2 7.5-13 1.3-.8 2.1-2.2 2.1-3.7.1-12 9.9-21.8 21.9-21.8 6.2 0 12.1 2.8 16.3 7.5 0 .1 0 .2-.1.3-6.1 4.5-9.7 11.5-9.7 19.1 0 11.6 8.3 21.3 19.3 23.4-2.7 2.1-6 3.4-9.5 3.4-5.1 0-9.8-2.6-12.6-6.8-1.6-2.5-5.7-2.5-7.3 0-2.9 4.3-7.7 6.8-12.7 6.8zM81 124.6V99.9c0-.1 0-.2-.1-.3 3.6 2 7.6 3.3 12 3.3 8.9 0 17.1-5 21.1-12.8 1.7-.5 3.4-1.2 5-2.1 0 .1-.1.2-.1.3v36.5h-16.1l-21.8-.2z" data-color="1"></path>
      <path d="M70.9 76.1a5.9 5.9 0 11-11.8 0 5.9 5.9 0 0111.8 0z" fill="#000000" data-color="1"></path>
      <path d="M82.5 58.6a5.9 5.9 0 11-11.8 0 5.9 5.9 0 0111.8 0z" fill="#000000" data-color="1"></path>
      <path d="M117.5 64.3a5.9 5.9 0 11-11.8 0 5.9 5.9 0 0111.8 0z" fill="#000000" data-color="1"></path>
      <path d="M140.9 64.3a5.9 5.9 0 11-11.8 0 5.9 5.9 0 0111.8 0z" fill="#000000" data-color="1"></path>
      <path d="M129.3 46.8a5.9 5.9 0 11-11.8 0 5.9 5.9 0 0111.8 0z" fill="#000000" data-color="1"></path>
  </g>
</svg>