<svg preserveAspectRatio="xMidYMid meet" data-bbox="36.3 19.9 127.6 160.2" xmlns="http://www.w3.org/2000/svg" width="200" height="200" viewBox="36.3 19.9 127.6 160.2" data-type="color" role="presentation" aria-hidden="true" aria-labelledby="svgcid--evn2bl-yd68af"><defs><style>#comp-kcalf4d3 svg [data-color="1"] {fill: #FFF5EC;}</style></defs><title id="svgcid--evn2bl-yd68af"></title>
    <g>
        <path fill="#d0362c" d="M158.9 170.3h-8.1V94c0-12-9.8-21.8-21.8-21.8h-19.4c4.6-3.3 7.7-8.6 7.7-14.7 0-7.9-5.2-14.7-12.5-17 1.7-6.2 7.4-10.8 14.1-10.8 2.7 0 4.9-2.2 4.9-4.9s-2.2-4.9-4.9-4.9c-12.1 0-22.1 8.8-24.1 20.2-7.7 2-13.6 9-13.6 17.3 0 6.1 3.1 11.4 7.7 14.7H54.2c-2.7 0-4.9 2.2-4.9 4.9v93.3h-8.1c-2.7 0-4.9 2.2-4.9 4.9s2.2 4.9 4.9 4.9H159c2.7 0 4.9-2.2 4.9-4.9-.2-2.7-2.3-4.9-5-4.9zm-59.7-121c4.6 0 8.1 3.7 8.1 8.1s-3.7 8.1-8.1 8.1c-4.5 0-8.1-3.7-8.1-8.1s3.6-8.1 8.1-8.1zM128.9 82c6.6 0 12 5.4 12 12v76.3h-9.8V96.7c0-2.7-2.2-4.9-4.9-4.9h-67V82h69.7zm-69.8 19.6h62.1V131H59.1v-29.4zm0 68.7v-29.4h62.1v29.4H59.1z" data-color="1"></path>
    </g>
</svg>