<svg preserveAspectRatio="xMidYMid meet" data-bbox="50.7 20.3 98.6 159.4" xmlns="http://www.w3.org/2000/svg" width="200" height="200" viewBox="50.7 20.3 98.6 159.4" data-type="color" role="presentation" aria-hidden="true" aria-labelledby="svgcid-8totgyksme36"><defs><style>#comp-kcakx7cr svg [data-color="1"] {fill: #FFF5EC;}</style></defs><title id="svgcid-8totgyksme36"></title>
    <g>
        <path fill="#d0362c" d="M118 93.1c-2.5 0-4.5 2-4.5 4.5v6c0 2.5 2 4.5 4.5 4.5s4.5-2 4.5-4.5v-6c-.1-2.5-2.1-4.5-4.5-4.5z" data-color="1"></path>
        <path fill="#d0362c" d="M100 108.1c2.5 0 4.5-2 4.5-4.5v-6c0-2.5-2-4.5-4.5-4.5s-4.5 2-4.5 4.5v6c0 2.4 2 4.5 4.5 4.5z" data-color="1"></path>
        <path fill="#d0362c" d="M86.6 97.6c0-2.5-2-4.5-4.5-4.5s-4.5 2-4.5 4.5v6c0 2.5 2 4.5 4.5 4.5s4.5-2 4.5-4.5v-6z" data-color="1"></path>
        <path fill="#d0362c" d="M108.9 117c-2.5 0-4.5 2-4.5 4.5v6c0 2.5 2 4.5 4.5 4.5s4.5-2 4.5-4.5v-6c0-2.5-2-4.5-4.5-4.5z" data-color="1"></path>
        <path fill="#d0362c" d="M95.5 121.5c0-2.5-2-4.5-4.5-4.5s-4.5 2-4.5 4.5v6c0 2.5 2 4.5 4.5 4.5s4.5-2 4.5-4.5v-6z" data-color="1"></path>
        <path fill="#d0362c" d="M100 140.9c-2.5 0-4.5 2-4.5 4.5v6c0 2.5 2 4.5 4.5 4.5s4.5-2 4.5-4.5v-6c0-2.5-2-4.5-4.5-4.5z" data-color="1"></path>
        <path fill="#d0362c" d="M123.8 75.3c13-5.5 22.1-18.3 22.1-33.4v-4.5h-14.2c-5.6 0-11 1.3-15.9 3.7-1.8-7.2-6.2-13.7-13-18.9l-2.7-1.9-2.7 2.1c-6.8 5.2-11.2 11.8-13 18.9-5-2.4-10.4-3.7-15.9-3.7H54.1v4.5c0 15 9.1 27.9 22.1 33.4-15.1 8.2-25.5 24.4-25.5 43 0 27.8 22 61.2 49.3 61.2s49.3-33.5 49.3-61.2c0-18.6-10.4-34.8-25.5-43.2zm12.7-28.8c-2.1 12.8-13.4 22.7-26.8 22.7h-1.6c4.8-5.3 7.6-11.4 8.2-18 4.5-3.1 9.7-4.8 15.2-4.8.1.1 5 .1 5 .1zM100 31.8c5 4.8 7.6 10.5 7.6 16.5S105 60.1 100 64.9c-5-4.8-7.6-10.5-7.6-16.5S95 36.6 100 31.8zM63.5 46.5h4.9c5.4 0 10.6 1.6 15.1 4.6l.1-.2c.6 6.6 3.5 12.9 8.3 18.2h-1.6c-13.5.1-24.7-9.7-26.8-22.6zM100 170.8c-21.3 0-40.3-29.2-40.3-52.3 0-22.2 18-40.3 40.3-40.3 22.2 0 40.3 18 40.3 40.3 0 23.1-19 52.3-40.3 52.3z" data-color="1"></path>
    </g>
</svg>