<svg preserveAspectRatio="xMidYMid meet" data-bbox="29.12 20.714 141.784 158.686" xmlns="http://www.w3.org/2000/svg" width="200" height="200" viewBox="29.12 20.714 141.784 158.686" data-type="color" role="presentation" aria-hidden="true" aria-labelledby="svgcid-gzx1gw3qmv9c"><defs><style>#comp-kcakz2ci svg [data-color="1"] {fill: #FFF5EC;}</style></defs><title id="svgcid-gzx1gw3qmv9c"></title>
    <g>
        <path fill="#d0362c" d="M67.9 95.8c-1.7-6.5-5.1-12.3-9.5-16.2-4.9-4.3-10.8-6.1-16-4.6-10.6 2.8-15.9 16.2-12 30.7 1.7 6.5 5.1 12.3 9.5 16.2 3.7 3.4 8.1 5.1 12.3 5.1 1.2 0 2.5-.2 3.7-.5 10.5-2.7 15.8-16.2 12-30.7zm-21.6 18.9c-3-2.6-5.4-6.8-6.5-11.4-2.5-9.7.7-17.7 5.1-18.8.5-.1.9-.2 1.3-.2 2.4 0 4.6 1.6 5.8 2.7 3 2.6 5.4 6.8 6.5 11.4 2.5 9.7-.7 17.7-5.1 18.8-2.9.7-5.7-1.3-7.1-2.5z" data-color="1"></path>
        <path fill="#d0362c" d="M74.7 91.3c2.1 1.2 4.3 1.8 6.5 1.8 1.4 0 2.9-.3 4.2-.8C97 87.9 100 67.5 97 50.7c-2.3-13.5-8-24-15.2-28.1-3.6-2-7.2-2.3-10.8-1C59.4 26 56.3 46.3 59.4 63.2c2.4 13.5 8.1 24.1 15.3 28.1zm-.2-60.7c.2-.1.5-.2.8-.2.5 0 1 .1 1.7.6 3.7 2.1 8.5 9.5 10.6 21.4 3 16.4-1.2 29.2-5.5 30.8-.3.1-1.1.4-2.5-.4-3.7-2.1-8.5-9.5-10.6-21.4-3-16.4 1.2-29.2 5.5-30.8z" data-color="1"></path>
        <path fill="#d0362c" d="M169.4 86.8c-2.1-6.1-6.4-10.5-11.7-11.9-5.3-1.3-11.1.3-16 4.6-4.4 3.9-7.8 9.7-9.5 16.2-3.7 14.5 1.5 28 12 30.7 1.2.3 2.5.5 3.7.5 4.2 0 8.6-1.7 12.3-5.1 4.4-3.9 7.8-9.7 9.5-16.2 1.7-6.5 1.6-13.1-.3-18.8zm-9.1 16.4c-1.2 4.6-3.7 8.8-6.5 11.4-1.4 1.2-4.2 3.3-7.1 2.5-4.4-1.2-7.6-9.2-5.1-18.8 1.2-4.6 3.7-8.8 6.5-11.4 1.2-1.1 3.4-2.7 5.8-2.7.4 0 .9.1 1.3.2 2.9.8 4.3 3.8 5 5.7 1.3 3.6 1.3 8.4.1 13.1z" data-color="1"></path>
        <path fill="#d0362c" d="M114.6 92.3c1.4.6 2.8.8 4.2.8 2.2 0 4.3-.6 6.5-1.8 7.2-4 13-14.6 15.4-28.2 3-16.9 0-37.2-11.6-41.6-3.5-1.3-7.2-1-10.8 1-7.2 4-13 14.6-15.4 28.2-3 16.9.1 37.2 11.7 41.6zm-2-39.9c2.1-11.8 6.8-19.3 10.6-21.4.8-.4 1.3-.6 1.7-.6s.6.1.8.2c4.2 1.6 8.5 14.4 5.5 30.8-2.1 11.8-6.8 19.3-10.6 21.4-1.2.7-2 .6-2.5.4-4.3-1.6-8.5-14.4-5.5-30.8z" data-color="1"></path>
        <path fill="#d0362c" d="M114.7 119.2c-3.7-4.3-9-6.7-14.7-6.7-5.7 0-11 2.5-14.7 6.7l-28.3 33c-1.7 2-1.5 5.1.5 6.8s5.1 1.5 6.8-.5l28.3-33.1c1.8-2.1 4.5-3.4 7.3-3.4s5.5 1.2 7.3 3.4l28.3 33.1c1 1.2 2.3 1.7 3.7 1.7 1.2 0 2.2-.4 3.2-1.2 2-1.7 2.3-4.8.5-6.8l-28.2-33z" data-color="1"></path>
        <path fill="#d0362c" d="M107.3 146.9c-3.7-4.2-11-4.2-14.6 0l-21 24.5c-1.7 2-1.5 5.1.5 6.8 1 .8 2 1.2 3.2 1.2 1.3 0 2.7-.6 3.7-1.7l20.8-24.5 21 24.5c1.7 2 4.8 2.3 6.8.5 2-1.7 2.3-4.8.5-6.8l-20.9-24.5z" data-color="1"></path>
    </g>
</svg>